#!OML:ASF \\sashay\E\Suitcase\Project 1\Capture day 1\Session 1\Male1.ASF
:FULLY-SPECIFIED
:DEGREES
392
root -0.236806 17.4146 -10.864 5.55964 -0.220255 -5.96754
lowerback 3.75215 0.343487 4.07008
upperback 1.24122 0.658503 4.87934
thorax -0.839571 0.325277 2.7123
lowerneck -15.165 -0.30798 -0.886265
upperneck 21.9393 0.242942 -1.83794
head 9.42786 -0.166193 -0.455026
rclavicle 5.36719e-015 5.725e-014
rhumerus -42.4453 -28.3658 -60.8212
rradius 16.5523
rwrist 2.99793
rhand -13.2644 10.6326
rfingers 7.12502
rthumb 12.8383 -18.9526
lclavicle 5.36719e-015 5.725e-014
lhumerus -35.7334 5.20192 83.416
lradius 40.4033
lwrist 0.0779543
lhand -4.1978 42.1876
lfingers 7.12502
lthumb 21.564 71.0071
rfemur -8.80567 0.869565 31.7456
rtibia 21.3251
rfoot -16.0872 -2.05388
rtoes 15.8355
lfemur -29.6929 3.18299 -10.4412
ltibia 60.0473
lfoot -14.3567 -5.0355
ltoes 6.72279
393
root -0.246805 17.4038 -10.7595 5.66001 -0.368685 -5.74142
lowerback 3.88975 0.562722 3.63227
upperback 0.945891 0.961972 4.76682
thorax -1.23188 0.473861 2.82438
lowerneck -14.4946 -0.402107 -0.830329
upperneck 22.0358 0.0696268 -1.7581
head 9.33464 -0.230384 -0.456542
rclavicle -2.41523e-014 -7.95139e-016
rhumerus -43.4038 -28.0344 -60.6356
rradius 16.7468
rwrist 2.82551
rhand -13.439 9.14578
rfingers 7.12502
rthumb 12.67 -20.4499
lclavicle -2.41523e-014 -7.95139e-016
lhumerus -36.2095 4.54235 83.6049
lradius 40.6528
lwrist 0.125943
lhand -4.50392 42.0335
lfingers 7.12502
lthumb 21.27 70.8864
rfemur -8.4791 1.60969 31.6268
rtibia 21.2392
rfoot -16.1612 -2.84963
rtoes 14.359
lfemur -30.4285 3.19422 -10.6735
ltibia 58.8684
lfoot -14.3809 -4.39061
ltoes 6.38949
394
root -0.239452 17.3964 -10.636 5.59365 -0.147578 -6.07691
lowerback 3.67228 0.4631 4.14981
upperback 1.21005 0.816228 4.80792
thorax -0.827541 0.4043 2.58702
lowerneck -14.9134 -0.540119 -1.1537
upperneck 21.9692 -0.101023 -1.48799
head 9.38964 -0.308103 -0.331473
rclavicle 9.93923e-015 2.22639e-014
rhumerus -43.0311 -28.0888 -60.8472
rradius 16.5383
rwrist 2.96399
rhand -13.1225 9.75638
rfingers 7.12502
rthumb 12.9751 -19.8202
lclavicle 9.93923e-015 2.22639e-014
lhumerus -35.8571 4.60884 83.58
lradius 40.9834
lwrist 0.124543
lhand -3.87027 42.058
lfingers 7.12502
lthumb 21.8785 70.841
rfemur -7.85398 1.07272 32.0255
rtibia 21.2061
rfoot -16.4981 -2.69035
rtoes 14.2138
lfemur -30.9148 2.75126 -10.3321
ltibia 57.6541
lfoot -14.3159 -3.43865
ltoes 5.76099
395
root -0.251067 17.3843 -10.5296 5.59155 -0.235302 -6.10762
lowerback 3.7642 0.522123 3.94762
upperback 1.14947 0.898692 4.82742
thorax -0.946269 0.444341 2.71571
lowerneck -14.4244 -0.570766 -1.01478
upperneck 21.671 -0.159455 -1.62424
head 9.19385 -0.334633 -0.405253
rclavicle -3.97569e-015 -4.21423e-014
rhumerus -43.1673 -27.0902 -61.5081
rradius 16.9398
rwrist 2.10395
rhand -13.3691 8.63537
rfingers 7.12502
rthumb 12.7374 -20.9561
lclavicle -3.97569e-015 -4.21423e-014
lhumerus -35.8152 4.34874 83.7074
lradius 40.6574
lwrist -0.0435362
lhand -4.53331 40.6023
lfingers 7.12502
lthumb 21.2418 69.4584
rfemur -7.43184 1.58338 32.1846
rtibia 21.114
rfoot -16.6842 -3.38451
rtoes 12.9514
lfemur -31.4281 2.62837 -10.2588
ltibia 56.2712
lfoot -14.5256 -2.73557
ltoes 6.58152
396
root -0.238451 17.3907 -10.4131 5.67004 -0.137333 -5.68735
lowerback 3.67743 0.45648 3.7216
upperback 1.1395 0.7954 4.65619
thorax -0.906782 0.393257 2.66973
lowerneck -14.4022 -0.408249 -0.932136
upperneck 21.6843 0.0991278 -1.8441
head 9.19575 -0.231317 -0.463242
rclavicle -1.78906e-015 2.62396e-014
rhumerus -43.3427 -28.5361 -60.3003
rradius 15.9856
rwrist 3.99059
rhand -13.3865 8.59176
rfingers 7.12502
rthumb 12.7206 -21.0008
lclavicle -1.78906e-015 2.62396e-014
lhumerus -36.0867 4.45555 83.6578
lradius 40.9435
lwrist -0.0590917
lhand -4.82924 41.0775
lfingers 7.12502
lthumb 20.9575 69.9653
rfemur -6.87865 1.32242 31.6746
rtibia 20.7728
rfoot -16.8808 -3.10739
rtoes 13.3423
lfemur -31.7844 1.97859 -10.7402
ltibia 54.8261
lfoot -14.6005 -2.04497
ltoes 8.96383
397
root -0.24041 17.3851 -10.2993 5.86472 -0.0459182 -6.04163
lowerback 3.68835 0.36821 4.0855
upperback 1.03498 0.698764 4.69249
thorax -1.0146 0.343315 2.50762
lowerneck -14.9228 -0.260772 -0.98992
upperneck 22.0162 0.316502 -1.7681
head 9.4098 -0.132064 -0.404083
rclavicle 4.37326e-015 3.33958e-014
rhumerus -43.383 -27.6234 -60.9929
rradius 16.2832
rwrist 3.21544
rhand -13.4489 8.50905
rfingers 7.12502
rthumb 12.6604 -21.0872
lclavicle 4.37326e-015 3.33958e-014
lhumerus -36.0131 4.27392 83.6706
lradius 41.1632
lwrist 0.249473
lhand -4.85466 40.9757
lfingers 7.12502
lthumb 20.933 69.8662
rfemur -6.4273 1.51755 32.1311
rtibia 20.2736
rfoot -16.9153 -3.49336
rtoes 13.3363
lfemur -32.5785 1.80972 -10.3666
ltibia 53.391
lfoot -14.2563 -1.14839
ltoes 8.39092
398
root -0.240324 17.3908 -10.1791 5.73248 -0.12271 -5.95653
lowerback 3.62959 0.383069 3.94214
upperback 1.19292 0.699178 4.71847
thorax -0.821051 0.345843 2.61561
lowerneck -14.6837 -0.348807 -1.2079
upperneck 21.874 0.264903 -1.86638
head 9.31601 -0.182611 -0.406433
rclavicle -5.36719e-015 -1.27222e-014
rhumerus -43.2782 -27.6201 -60.907
rradius 16.1939
rwrist 3.33727
rhand -13.371 8.54036
rfingers 7.12502
rthumb 12.7356 -21.0513
lclavicle -5.36719e-015 -1.27222e-014
lhumerus -35.8564 4.47101 83.7607
lradius 41.0602
lwrist 0.255511
lhand -4.52928 40.8768
lfingers 7.12502
lthumb 21.2456 69.7324
rfemur -5.55406 1.98525 32.0918
rtibia 19.8135
rfoot -17.0379 -4.02276
rtoes 13.3766
lfemur -32.667 1.60818 -10.4694
ltibia 51.8561
lfoot -14.1583 -0.423684
ltoes 9.6418
399
root -0.240109 17.3855 -10.0734 5.89331 -0.361232 -6.47136
lowerback 3.73616 0.570875 4.45
upperback 1.14606 0.978625 4.72828
thorax -0.925084 0.483993 2.32863
lowerneck -15.007 -0.328624 -1.00012
upperneck 22.0281 0.243522 -1.83638
head 9.4296 -0.174794 -0.435237
rclavicle -7.25564e-015 -1.90833e-014
rhumerus -43.6546 -27.5437 -61.1086
rradius 16.4065
rwrist 3.17033
rhand -13.4131 7.8839
rfingers 7.12502
rthumb 12.6949 -21.7102
lclavicle -7.25564e-015 -1.90833e-014
lhumerus -35.9037 3.8693 83.8192
lradius 41.1058
lwrist 0.286747
lhand -4.45481 40.1407
lfingers 7.12502
lthumb 21.3172 68.9883
rfemur -4.97884 2.11022 32.6605
rtibia 19.0751
rfoot -16.7707 -3.91773
rtoes 13.0609
lfemur -33.2042 1.62735 -9.87414
ltibia 50.4448
lfoot -13.509 0.5443
ltoes 12.3187
400
root -0.235173 17.3875 -9.95768 5.98988 -0.208088 -5.97432
lowerback 3.51313 0.448914 3.92077
upperback 1.16471 0.778366 4.61226
thorax -0.785048 0.385719 2.51474
lowerneck -14.9452 -0.306043 -0.77803
upperneck 21.9768 0.287673 -2.13212
head 9.40097 -0.168245 -0.568597
rclavicle -3.08116e-015 1.66979e-014
rhumerus -43.8438 -28.604 -60.1658
rradius 15.7957
rwrist 5.00581
rhand -13.4731 8.1455
rfingers 7.12502
rthumb 12.6372 -21.4522
lclavicle -3.08116e-015 1.66979e-014
lhumerus -35.8577 4.06465 83.8116
lradius 41.0896
lwrist 0.0543618
lhand -4.1086 42.2726
lfingers 7.12502
lthumb 21.6497 71.0822
rfemur -4.3502 1.8368 32.1433
rtibia 18.4658
rfoot -16.7336 -4.15066
rtoes 11.6659
lfemur -33.6362 1.19818 -10.5045
ltibia 48.72
lfoot -13.9465 1.3654
ltoes 10.3658
401
root -0.240012 17.3747 -9.84803 5.89241 -0.0482073 -6.59038
lowerback 3.77027 0.410853 4.43329
upperback 1.07768 0.773183 4.79465
thorax -1.01416 0.380156 2.41548
lowerneck -14.5269 -0.349631 -0.967372
upperneck 21.7207 0.235913 -2.02514
head 9.23317 -0.191417 -0.503523
rclavicle 1.0138e-014 1.00983e-013
rhumerus -43.8836 -27.7808 -60.6577
rradius 15.9629
rwrist 4.12309
rhand -13.6901 7.46179
rfingers 7.12502
rthumb 12.4279 -22.1487
lclavicle 1.0138e-014 1.00983e-013
lhumerus -36.1765 4.10074 83.9032
lradius 41.3269
lwrist -0.133436
lhand -3.81791 41.8134
lfingers 7.12502
lthumb 21.9288 70.5906
rfemur -3.50688 1.97553 32.9171
rtibia 17.819
rfoot -16.5381 -4.56885
rtoes 11.2471
lfemur -33.9358 1.21724 -9.91704
ltibia 47.2441
lfoot -13.7592 2.04892
ltoes 7.97974
402
root -0.228247 17.3829 -9.72734 6.07077 -0.431784 -6.0149
lowerback 3.47159 0.580288 3.9895
upperback 1.14158 0.952602 4.47437
thorax -0.784759 0.472778 2.3265
lowerneck -14.8058 -0.32977 -1.0064
upperneck 22.0199 0.205432 -1.69565
head 9.3884 -0.1763 -0.389749
rclavicle -8.44835e-015 -1.51076e-014
rhumerus -44.0655 -27.726 -60.8194
rradius 16.0172
rwrist 3.87819
rhand -13.3808 7.46604
rfingers 7.12502
rthumb 12.7261 -22.1262
lclavicle -8.44835e-015 -1.51076e-014
lhumerus -36.0731 3.48572 84.0207
lradius 41.1673
lwrist 0.0133182
lhand -4.31523 41.6679
lfingers 7.12502
lthumb 21.4512 70.5003
rfemur -2.94768 1.56602 32.2195
rtibia 17.3208
rfoot -16.5076 -4.13809
rtoes 10.6642
lfemur -34.0919 0.963898 -10.526
ltibia 45.3492
lfoot -13.5133 2.69763
ltoes 9.81837
403
root -0.22727 17.3901 -9.61303 6.28762 -0.0201512 -6.17065
lowerback 3.19695 0.343747 3.9811
upperback 1.20903 0.615025 4.67012
thorax -0.559672 0.306198 2.54964
lowerneck -15.1739 -0.28419 -1.06862
upperneck 22.1279 0.345779 -1.911
head 9.49689 -0.143591 -0.437803
rclavicle -1.5704e-014 -2.46493e-014
rhumerus -43.7393 -27.6228 -60.7956
rradius 15.9071
rwrist 4.25498
rhand -13.5015 7.40167
rfingers 7.12502
rthumb 12.6097 -22.1977
lclavicle -1.5704e-014 -2.46493e-014
lhumerus -35.8945 4.16854 84.0713
lradius 41.034
lwrist -0.250207
lhand -4.15309 41.0103
lfingers 7.12502
lthumb 21.6069 69.8249
rfemur -2.39966 1.29741 32.474
rtibia 16.4887
rfoot -16.4448 -4.44641
rtoes 10.2427
lfemur -34.4801 0.554434 -10.3321
ltibia 43.7634
lfoot -13.4436 3.16456
ltoes 13.5616
